<svg width="28" height="22" viewBox="0 0 28 22" fill="none" xmlns="http://www.w3.org/2000/svg">
<path d="M24.6667 11C24.6667 9.53337 25.8667 8.33337 27.3333 8.33337V3.00004C27.3333 1.53337 26.1333 0.333374 24.6667 0.333374H3.33333C1.86667 0.333374 0.679999 1.53337 0.679999 3.00004V8.33337C2.14667 8.33337 3.33333 9.53337 3.33333 11C3.33333 12.4667 2.14667 13.6667 0.666666 13.6667V19C0.666666 20.4667 1.86667 21.6667 3.33333 21.6667H24.6667C26.1333 21.6667 27.3333 20.4667 27.3333 19V13.6667C25.8667 13.6667 24.6667 12.4667 24.6667 11ZM18.7733 17.4L14 14.3334L9.22667 17.4L10.6667 11.9067L6.28 8.32004L11.9333 7.98671L14 2.73337L16.0533 8.00004L21.7067 8.33337L17.32 11.92L18.7733 17.4Z" fill="white"/>
</svg>
